<svg xmlns="http://www.w3.org/2000/svg" viewBox="0 0 460 140" width="100%" height="100%" fill="none">
  <g fill="#FFFFFF">
    <!-- Mortarboard / Graduation Cap -->
    <path d="M 68 16 L 104 30 L 68 44 L 32 30 Z" />
    <path d="M 47 36.5 L 47 45 C 47 50, 89 50, 89 45 L 89 36.5 C 83 40.5, 53 40.5, 47 36.5 Z" />
    <circle cx="68" cy="30" r="2.2" />
    <path d="M 68 30 Q 50 32 40 46" stroke="#FFFFFF" stroke-width="2.2" stroke-linecap="round" fill="none" />
    <path d="M 38 44 L 36 53 L 43 50 Z" />
    <!-- Student Head -->
    <circle cx="68" cy="58" r="14" />
    <!-- Dynamic Graduate Robe Wings -->
    <path d="M 68 78 C 74 78 82 81 86 85 C 101 100 116 105 135 91 C 127 107 113 124 95 133 C 81 140 75 129 71 113 L 68 96 L 65 113 C 61 129 55 140 41 133 C 23 124 9 107 1 91 C 20 105 35 100 50 85 C 54 81 62 78 68 78 Z" transform="translate(10, 0)" />
    <path d="M 52 82 C 44 91 40 103 39 119 C 36 106 37 94 42 81 C 45 74 49 71 52 68 C 53 73 52 78 52 82 Z" />
    
    <!-- Bac- Code -->
    <text x="152" y="68" font-family="'Dancing Script', 'Alex Brush', 'Brush Script MT', 'Great Vibes', cursive" font-size="56" font-weight="700" font-style="italic" letter-spacing="0.5">Bac- Code</text>
    <!-- Academy -->
    <text x="154" y="122" font-family="'Playfair Display', 'Merriweather', 'Georgia', serif" font-size="52" font-weight="900" letter-spacing="1">Academy</text>
  </g>
</svg>
